# xmcd
#
# Track frame offsets:
#	150
#	19075
#	36228
#	50708
#	69653
#	86290
#	103849
#	121268
#	137249
#	151785
#	170971
#	187980
#	206583
#	224281
#	239061
#
# Disc length: 3383 seconds
#
# Revision: 1
# Processed by: cddbd v1.5.2PL0 Copyright (c) Steve Scherf et al.
# Submitted via: audiograbber 1.82.02
#
DISCID=dc0d350f
DTITLE=Various Artist - CB60121
DYEAR=1900
DGENRE=
TTITLE0=Alabama - Dancin', Shaggin' On The Boulevard
TTITLE1=Lonestar - Come Cryin' To Me
TTITLE2=Sons Of The Desert - Whatever Comes First
TTITLE3=Buffalo Club - Nothin' Less Than Love
TTITLE4=Boy Howdy - She'd Give Anything
TTITLE5=Sawyer Brown - Small Talk
TTITLE6=Confederate Railroad - Daddy Never Was The Cadillac Kind
TTITLE7=Alabama - Hometown Honeymoon
TTITLE8=Bellamy Brothers - Redneck Girl
TTITLE9=Garth Brooks et al - One Heart At A Time
TTITLE10=Diamond Rio - You're Gone
TTITLE11=Lonestar - Everything's Changed
TTITLE12=Kentucky Headhunters - Walk Softly On This Heart Of Mine
TTITLE13=Mavericks - Oh, What A Thrill
TTITLE14=Alabama - Say I
EXTD=
EXTT0=
EXTT1=
EXTT2=
EXTT3=
EXTT4=
EXTT5=
EXTT6=
EXTT7=
EXTT8=
EXTT9=
EXTT10=
EXTT11=
EXTT12=
EXTT13=
EXTT14=
PLAYORDER=
